# xmcd
# 
# Track frame offsets:
#     150
#     16020
#     30262
#     49110
#     66902
#     81327
#     97177
#     114654
#     131687
#     150545
#     173580
# 
# Disc length: 2553
# 
# Revision: 3
# Processed by: cddbd v1.5.2PL0 Copyright (c) Steve Scherf et al.
# Submitted via: fre:ac v1.0.31
# 
DISCID=8409f70b
DTITLE=Diomedes Díaz - Con mucho estilo
DYEAR=1981
DGENRE=Vallenato
TTITLE0=Lo mismo me da
TTITLE1=El invencible
TTITLE2=Un detalle
TTITLE3=A mi papá
TTITLE4=La gotera
TTITLE5=Amorcito consentido
TTITLE6=Zulinda
TTITLE7=La vida cambia
TTITLE8=Chispitas de oro
TTITLE9=Bonita
TTITLE10=Son montañero
EXTD=
EXTT0=
EXTT1=
EXTT2=
EXTT3=
EXTT4=
EXTT5=
EXTT6=
EXTT7=
EXTT8=
EXTT9=
EXTT10=
PLAYORDER=
